<?xml version="1.0" standalone="no"?>
<!DOCTYPE svg PUBLIC "-//W3C//DTD SVG 20010904//EN"
 "http://www.w3.org/TR/2001/REC-SVG-20010904/DTD/svg10.dtd">
<svg version="1.0" xmlns="http://www.w3.org/2000/svg"
 width="341.000000pt" height="341.000000pt" viewBox="0 0 341.000000 341.000000"
 preserveAspectRatio="xMidYMid meet">
<metadata>
Created by potrace 1.11, written by Peter Selinger 2001-2013
</metadata>
<g transform="translate(0.000000,341.000000) scale(0.100000,-0.100000)"
fill="#000000" stroke="none">
<path d="M1646 2993 c-2 -2 -25 -6 -52 -10 -70 -8 -206 -49 -267 -80 -238
-120 -408 -330 -479 -590 -31 -115 -30 -325 1 -443 87 -328 346 -579 676 -657
87 -20 265 -25 350 -8 266 51 489 204 624 430 40 66 97 212 105 270 4 23 9 52
12 65 9 46 7 215 -5 278 -44 235 -173 440 -362 574 -156 112 -323 167 -517
172 -45 1 -84 0 -86 -1z m213 -485 c129 -43 230 -141 277 -268 20 -56 27 -188
12 -249 -38 -158 -164 -282 -328 -323 -260 -65 -523 136 -534 407 -8 206 143
405 338 445 64 13 176 8 235 -12z"/>
<path d="M681 711 c-11 -7 -14 -42 -15 -160 0 -160 7 -187 42 -165 13 9 17 25
17 70 l0 59 78 3 77 3 0 -58 c0 -69 9 -88 39 -78 20 6 21 12 21 165 0 137 -2
159 -16 164 -30 11 -44 -13 -44 -75 0 -40 -4 -59 -12 -60 -7 0 -41 -1 -76 -2
l-62 -2 -1 35 c-1 19 0 45 1 58 1 22 -15 52 -29 52 -3 0 -12 -4 -20 -9z"/>
<path d="M1438 712 c-20 -4 -20 -1 -20 -180 0 -141 7 -167 40 -146 15 10 17
31 18 163 1 155 -3 172 -38 163z"/>
<path d="M1962 708 c-6 -8 -9 -74 -8 -162 1 -129 3 -150 18 -160 34 -21 40 5
40 164 1 119 -2 154 -13 161 -19 12 -25 11 -37 -3z"/>
<path d="M2563 706 c-40 -18 -83 -83 -90 -135 -7 -49 17 -118 50 -149 50 -47
126 -58 185 -28 108 56 120 226 21 297 -40 28 -121 35 -166 15z m130 -66 c84
-67 24 -231 -75 -202 -51 15 -86 62 -82 110 1 12 2 28 3 36 0 8 13 28 27 45
32 38 87 43 127 11z"/>
</g>
</svg>
